<svg xmlns="http://www.w3.org/2000/svg" viewBox="0 0 320 180" fill="none">
  <rect width="320" height="180" fill="#E8F0EE"/>
  <rect x="0" y="0" width="320" height="180" fill="url(#g)" opacity="0.35"/>
  <defs><linearGradient id="g" x1="0" y1="0" x2="320" y2="180" gradientUnits="userSpaceOnUse">
    <stop stop-color="#B8D0C8"/><stop offset="1" stop-color="#E8F0EE"/>
  </linearGradient></defs>

  <rect x="85" y="40" width="150" height="110" rx="4" fill="#fff" stroke="#245A52" stroke-width="2"/>
  <path d="M85 62h150" stroke="#245A52" stroke-width="1.5"/>
  <circle cx="115" cy="50" r="3" fill="#245A52"/><circle cx="205" cy="50" r="3" fill="#245A52"/>
  <g fill="#B8D0C8">
    <rect x="100" y="75" width="18" height="14" rx="2"/><rect x="125" y="75" width="18" height="14" rx="2"/>
    <rect x="150" y="75" width="18" height="14" rx="2"/><rect x="175" y="75" width="18" height="14" rx="2"/>
    <rect x="200" y="75" width="18" height="14" rx="2"/>
    <rect x="100" y="96" width="18" height="14" rx="2"/><rect x="125" y="96" width="18" height="14" rx="2"/>
  </g>
  <rect x="150" y="96" width="18" height="14" rx="2" fill="#245A52"/>
  <rect x="175" y="96" width="18" height="14" rx="2" fill="#B8D0C8"/>
  <rect x="200" y="96" width="18" height="14" rx="2" fill="#B8D0C8"/>
  <rect x="100" y="117" width="18" height="14" rx="2" fill="#B8D0C8"/>
  <rect x="125" y="117" width="18" height="14" rx="2" fill="#B8D0C8"/>
</svg>