<svg xmlns="http://www.w3.org/2000/svg" viewBox="0 0 320 180" fill="none">
  <rect width="320" height="180" fill="#E8F0EE"/>
  <rect x="0" y="0" width="320" height="180" fill="url(#g)" opacity="0.35"/>
  <defs><linearGradient id="g" x1="0" y1="0" x2="320" y2="180" gradientUnits="userSpaceOnUse">
    <stop stop-color="#B8D0C8"/><stop offset="1" stop-color="#E8F0EE"/>
  </linearGradient></defs>

  <path d="M70 140c0-50 30-90 90-90s90 40 90 90" fill="#fff" stroke="#245A52" stroke-width="2"/>
  <path d="M100 140c0-35 20-60 60-60s60 25 60 60" fill="#E8F0EE" stroke="#245A52" stroke-width="1.5"/>
  <path d="M160 40v15M160 40l-8 12M160 40l8 12" stroke="#245A52" stroke-width="1.8" stroke-linecap="round"/>
  <circle cx="160" cy="95" r="14" fill="#245A52"/>
  <circle cx="154" cy="92" r="2" fill="#fff"/><circle cx="166" cy="92" r="2" fill="#fff"/>
  <path d="M154 100c4 4 8 4 12 0" stroke="#fff" stroke-width="1.5" fill="none"/>
  <rect x="148" y="108" width="24" height="18" rx="2" fill="#245A52"/>
  <circle cx="120" cy="70" r="3" fill="#245A52" opacity="0.4"/><circle cx="200" cy="65" r="2.5" fill="#245A52" opacity="0.35"/>
</svg>