<svg xmlns="http://www.w3.org/2000/svg" viewBox="0 0 1100 720" role="img" aria-labelledby="dashTitle dashDesc">
  <title id="dashTitle">Dashboard gestionale prenotazioni - schema</title>
  <desc id="dashDesc">Vista schematica: calendario risorse, statistiche, elenco prenotazioni. Funzioni evidenziate, dati reali sfumati.</desc>
  <defs>
    <filter id="blurData" x="-10%" y="-10%" width="120%" height="120%">
      <feGaussianBlur stdDeviation="3.2"/>
    </filter>
    <linearGradient id="bgGrad" x1="0" y1="0" x2="1" y2="1">
      <stop offset="0%" stop-color="#F5F4F0"/>
      <stop offset="100%" stop-color="#EEEDE8"/>
    </linearGradient>
    <marker id="arrow" markerWidth="8" markerHeight="8" refX="6" refY="3" orient="auto">
      <path d="M0,0 L6,3 L0,6 Z" fill="#245A52"/>
    </marker>
  </defs>

  <rect width="1100" height="720" fill="url(#bgGrad)"/>
  <rect x="24" y="24" width="1052" height="672" rx="4" fill="#FFFFFF" stroke="#D9D8D3"/>

  <rect x="24" y="24" width="1052" height="52" fill="#245A52"/>
  <text x="48" y="56" fill="#FFFFFF" font-family="Georgia, serif" font-size="16" font-weight="600">Attivita clienti</text>
  <rect x="820" y="36" width="88" height="28" rx="2" fill="#FFFFFF" opacity=".15"/>
  <text x="864" y="55" text-anchor="middle" fill="#FFFFFF" font-family="sans-serif" font-size="12" font-weight="600">Cerca</text>
  <rect x="920" y="36" width="132" height="28" rx="2" fill="#FFFFFF"/>
  <text x="986" y="55" text-anchor="middle" fill="#245A52" font-family="sans-serif" font-size="12" font-weight="700">+ Prenotazione</text>

  <rect x="900" y="88" width="170" height="36" rx="2" fill="#245A52"/>
  <text x="985" y="110" text-anchor="middle" fill="#FFFFFF" font-family="sans-serif" font-size="11" font-weight="600">Azione rapida</text>
  <line x1="986" y1="88" x2="986" y2="64" stroke="#245A52" stroke-width="1.5" marker-end="url(#arrow)"/>

  <text x="48" y="108" fill="#245A52" font-family="Georgia, serif" font-size="14" font-weight="600">Calendario risorse</text>
  <rect x="48" y="118" width="72" height="22" rx="2" fill="#EEEDE8" stroke="#D9D8D3"/>
  <text x="84" y="133" text-anchor="middle" fill="#686868" font-size="10" font-family="sans-serif">precedente</text>
  <rect x="128" y="118" width="72" height="22" rx="2" fill="#EEEDE8" stroke="#D9D8D3"/>
  <text x="164" y="133" text-anchor="middle" fill="#686868" font-size="10" font-family="sans-serif">successivo</text>
  <rect x="208" y="118" width="48" height="22" rx="2" fill="#245A52"/>
  <text x="232" y="133" text-anchor="middle" fill="#FFFFFF" font-size="10" font-family="sans-serif" font-weight="600">oggi</text>
  <rect x="264" y="118" width="48" height="22" rx="2" fill="#EEEDE8" stroke="#D9D8D3"/>
  <text x="288" y="133" text-anchor="middle" fill="#686868" font-size="10" font-family="sans-serif">mese</text>

  <rect x="40" y="148" width="620" height="168" rx="3" fill="none" stroke="#245A52" stroke-width="2" stroke-dasharray="4 3"/>
  <text x="48" y="164" fill="#245A52" font-size="10" font-family="sans-serif" font-weight="700" letter-spacing="1">VISTA ORARIA - DISPONIBILITA</text>

  <g font-family="sans-serif" font-size="9" fill="#686868">
    <text x="220" y="186">Dom 19</text>
    <text x="300" y="186">Lun 20</text>
    <text x="380" y="186">Mar 21</text>
    <text x="460" y="186">Mer 22</text>
    <text x="540" y="186">Gio 23</text>
  </g>

  <g filter="url(#blurData)">
    <text x="48" y="214" fill="#171717" font-size="11" font-family="sans-serif">Esperienza lacustre - turno mattina</text>
    <text x="48" y="250" fill="#171717" font-size="11" font-family="sans-serif">Ingresso evento stagionale 2026</text>
    <text x="48" y="286" fill="#171717" font-size="11" font-family="sans-serif">Gruppi visita guidata - fascia A</text>
  </g>

  <rect x="220" y="200" width="140" height="22" fill="#245A52" opacity=".18"/>
  <text x="290" y="215" text-anchor="middle" fill="#245A52" font-size="10" font-family="sans-serif" font-weight="700">X</text>
  <rect x="380" y="200" width="60" height="22" fill="#245A52" opacity=".35"/>
  <rect x="220" y="236" width="200" height="22" fill="#245A52" opacity=".22"/>
  <text x="320" y="251" text-anchor="middle" fill="#245A52" font-size="10" font-family="sans-serif" font-weight="700">X</text>
  <rect x="460" y="272" width="100" height="22" fill="#245A52" opacity=".28"/>

  <rect x="680" y="148" width="372" height="168" rx="3" fill="#F5F4F0" stroke="#245A52" stroke-width="2"/>
  <text x="696" y="172" fill="#245A52" font-size="11" font-family="sans-serif" font-weight="700" letter-spacing="1">STATISTICHE ATTIVITA</text>
  <text x="696" y="196" fill="#686868" font-size="11" font-family="sans-serif">Prenotazioni confermate - ultimi 7 giorni</text>

  <g filter="url(#blurData)">
    <text x="696" y="230" fill="#171717" font-size="28" font-family="Georgia, serif" font-weight="600">EUR 480,70</text>
    <text x="696" y="258" fill="#686868" font-size="12" font-family="sans-serif">6 prenotazioni - trend +</text>
  </g>
  <rect x="900" y="210" width="120" height="64" rx="2" fill="#FFFFFF" stroke="#D9D8D3"/>
  <text x="960" y="236" text-anchor="middle" fill="#686868" font-size="10" font-family="sans-serif">Oggi</text>
  <text x="960" y="258" text-anchor="middle" fill="#245A52" font-size="16" font-family="Georgia, serif" font-weight="600">-</text>

  <text x="48" y="350" fill="#245A52" font-family="Georgia, serif" font-size="14" font-weight="600">In attesa di conferma</text>
  <rect x="48" y="360" width="1004" height="36" rx="2" fill="#EEEDE8" stroke="#D9D8D3"/>
  <text x="550" y="382" text-anchor="middle" fill="#686868" font-size="12" font-family="sans-serif">Nessuna prenotazione in coda - flusso approvazione attivo</text>

  <rect x="40" y="414" width="1020" height="250" rx="3" fill="none" stroke="#245A52" stroke-width="2" stroke-dasharray="4 3"/>
  <text x="48" y="436" fill="#245A52" font-size="10" font-family="sans-serif" font-weight="700" letter-spacing="1">PROSSIME PRENOTAZIONI - DATI CLIENTI OSCURATI</text>

  <rect x="48" y="448" width="1004" height="28" fill="#245A52"/>
  <g fill="#FFFFFF" font-family="sans-serif" font-size="10" font-weight="600">
    <text x="60" y="466">ID</text>
    <text x="140" y="466">Risorsa</text>
    <text x="340" y="466">Utente</text>
    <text x="500" y="466">Fascia</text>
    <text x="680" y="466">Stato</text>
    <text x="860" y="466">Pagamento</text>
    <text x="980" y="466">Citta</text>
  </g>

  <g font-family="sans-serif" font-size="11">
    <rect x="48" y="476" width="1004" height="32" fill="#FFFFFF"/>
    <text x="60" y="496" fill="#245A52" font-weight="600">R****</text>
    <text x="140" y="496" fill="#171717">Tour lacustre - slot</text>
    <g filter="url(#blurData)"><text x="340" y="496" fill="#171717">M**** R****</text></g>
    <text x="500" y="496" fill="#686868">02.08 | 10:30-11:15</text>
    <text x="680" y="496" fill="#245A52">Confermata</text>
    <g filter="url(#blurData)"><text x="860" y="496" fill="#171717">EUR ***</text></g>
    <g filter="url(#blurData)"><text x="980" y="496" fill="#686868">****</text></g>

    <rect x="48" y="508" width="1004" height="32" fill="#F5F4F0"/>
    <text x="60" y="528" fill="#245A52" font-weight="600">R****</text>
    <text x="140" y="528" fill="#171717">Evento famiglie</text>
    <g filter="url(#blurData)"><text x="340" y="528" fill="#171717">L**** B****</text></g>
    <text x="500" y="528" fill="#686868">15.08 | 15:00-16:30</text>
    <text x="680" y="528" fill="#245A52">Email verificata</text>
    <g filter="url(#blurData)"><text x="860" y="528" fill="#171717">EUR ***</text></g>
    <g filter="url(#blurData)"><text x="980" y="528" fill="#686868">****</text></g>

    <rect x="48" y="540" width="1004" height="32" fill="#FFFFFF"/>
    <text x="60" y="560" fill="#245A52" font-weight="600">R****</text>
    <text x="140" y="560" fill="#171717">Gruppo visita</text>
    <g filter="url(#blurData)"><text x="340" y="560" fill="#171717">A**** C****</text></g>
    <text x="500" y="560" fill="#686868">20.08 | 09:00-11:00</text>
    <text x="680" y="560" fill="#A65D2E">Spostata</text>
    <g filter="url(#blurData)"><text x="860" y="560" fill="#171717">EUR ***</text></g>
    <g filter="url(#blurData)"><text x="980" y="560" fill="#686868">****</text></g>

    <rect x="48" y="572" width="1004" height="32" fill="#F5F4F0"/>
    <text x="60" y="592" fill="#245A52" font-weight="600">R****</text>
    <text x="140" y="592" fill="#171717">Noleggio mezzo</text>
    <g filter="url(#blurData)"><text x="340" y="592" fill="#171717">S**** D****</text></g>
    <text x="500" y="592" fill="#686868">22.08 | 14:00-15:00</text>
    <text x="680" y="592" fill="#245A52">Confermata</text>
    <g filter="url(#blurData)"><text x="860" y="592" fill="#171717">EUR ***</text></g>
    <g filter="url(#blurData)"><text x="980" y="592" fill="#686868">****</text></g>
  </g>

  <rect x="48" y="640" width="14" height="14" fill="#245A52"/>
  <text x="70" y="652" fill="#686868" font-size="11" font-family="sans-serif">Funzioni operative evidenziate</text>
  <rect x="280" y="640" width="14" height="14" fill="#C8C7C2"/>
  <text x="302" y="652" fill="#686868" font-size="11" font-family="sans-serif">Dati personali e importi sfumati</text>
  <text x="1052" y="652" text-anchor="end" fill="#245A52" font-size="11" font-family="Georgia, serif">LEM - schema backoffice</text>
</svg>
