<svg xmlns="http://www.w3.org/2000/svg" viewBox="0 0 56 56" fill="none">
  <circle cx="28" cy="28" r="27" fill="#fff" stroke="#245A52" stroke-width="1.2"/>
  <g stroke="#245A52" stroke-width="1.4" fill="none" stroke-linecap="round">
    <line x1="28" y1="19.4" x2="28" y2="11.2"/>
    <line x1="33.1" y1="22.6" x2="39.2" y2="16.5"/>
    <line x1="36.6" y1="28" x2="44.8" y2="28"/>
    <line x1="33.1" y1="33.4" x2="39.2" y2="39.5"/>
    <line x1="28" y1="36.6" x2="28" y2="44.8"/>
    <line x1="22.9" y1="33.4" x2="16.8" y2="39.5"/>
    <line x1="19.4" y1="28" x2="11.2" y2="28"/>
    <line x1="22.9" y1="22.6" x2="16.8" y2="16.5"/>
    <circle cx="28" cy="21" r="1.6"/>
    <circle cx="32.95" cy="23.05" r="1.6"/>
    <circle cx="35" cy="28" r="1.6"/>
    <circle cx="32.95" cy="32.95" r="1.6"/>
    <circle cx="28" cy="35" r="1.6"/>
    <circle cx="23.05" cy="32.95" r="1.6"/>
    <circle cx="21" cy="28" r="1.6"/>
    <circle cx="23.05" cy="23.05" r="1.6"/>
    <circle cx="28" cy="8" r="3.2"/>
    <circle cx="42.14" cy="13.86" r="3.2"/>
    <circle cx="48" cy="28" r="3.2"/>
    <circle cx="42.14" cy="42.14" r="3.2"/>
    <circle cx="28" cy="48" r="3.2"/>
    <circle cx="13.86" cy="42.14" r="3.2"/>
    <circle cx="8" cy="28" r="3.2"/>
    <circle cx="13.86" cy="13.86" r="3.2"/>
  </g>
  <path fill="#245A52" d="M28 21.8l1.2 4.2 4.2 1.2-4.2 1.2-1.2 4.2-1.2-4.2-4.2-1.2 4.2-1.2 1.2-4.2z"/>
</svg>
