<svg xmlns="http://www.w3.org/2000/svg" viewBox="0 0 56 56" fill="none">
  <circle cx="28" cy="28" r="27" fill="#fff" stroke="#245A52" stroke-width="1.2"/>
  <rect x="15" y="14" width="26" height="11" rx="1" stroke="#245A52" stroke-width="1.4"/>
  <path d="M13 25h30" stroke="#245A52" stroke-width="1.6" stroke-linecap="round"/>
  <path d="M13 25v3M43 25v3" stroke="#245A52" stroke-width="1.4" stroke-linecap="round"/>
  <path d="M13 28h30" stroke="#245A52" stroke-width="1.4" stroke-linecap="round"/>
  <g stroke="#245A52" stroke-width="1.3" fill="none" stroke-linejoin="round" stroke-linecap="round">
    <rect x="16.5" y="33" width="5" height="2.5" rx="0.5"/>
    <path d="M16.5 33V30.5h5"/>
    <line x1="18" y1="35.5" x2="18" y2="38.5"/>
    <line x1="20" y1="35.5" x2="20" y2="38.5"/>
    <rect x="25.5" y="33" width="5" height="2.5" rx="0.5"/>
    <path d="M25.5 33V30.5h5"/>
    <line x1="27" y1="35.5" x2="27" y2="38.5"/>
    <line x1="29" y1="35.5" x2="29" y2="38.5"/>
    <rect x="34.5" y="33" width="5" height="2.5" rx="0.5"/>
    <path d="M34.5 33V30.5h5"/>
    <line x1="36" y1="35.5" x2="36" y2="38.5"/>
    <line x1="38" y1="35.5" x2="38" y2="38.5"/>
  </g>
</svg>
